<svg xmlns="http://www.w3.org/2000/svg" xmlns:xlink="http://www.w3.org/1999/xlink" width="36px" height="51px" viewBox="-8 -15 50 80" version="1.1">
    <g id="Page-1" stroke="none" stroke-width="1" fill="none" fill-rule="evenodd">
        <path d="M0.698,23.656 L4.856,23.656 C3.84399494,22.4239938 3.07400264,20.9610085 2.546,19.267 C2.01799736,17.5729915 1.754,15.9340079 1.754,14.35 C1.754,12.2819897 2.1939956,10.4120084 3.074,8.74 C3.9540044,7.06799164 5.11999274,5.63800594 6.572,4.45 C8.02400726,3.26199406 9.67399076,2.34900319 11.522,1.711 C13.3700092,1.07299681 15.2619903,0.754 17.198,0.754 C22.2580253,0.754 26.2729852,2.10698647 29.243,4.813 C32.2130148,7.51901353 33.7199998,11.5999727 33.764,17.056 L26.24,17.056 C26.1519996,15.647993 25.9430016,14.3280062 25.613,13.096 C25.2829984,11.8639938 24.7770034,10.7970045 24.095,9.895 C23.4129966,8.99299549 22.5110056,8.28900253 21.389,7.783 C20.2669944,7.27699747 18.9140079,7.024 17.33,7.024 C15.3059899,7.024 13.5790071,7.6839934 12.149,9.004 C10.7189929,10.3240066 10.004,12.2379875 10.004,14.746 C10.004,16.2860077 10.3339967,17.8369922 10.994,19.399 C11.6540033,20.9610078 12.3359965,22.3799936 13.04,23.656 L22.742,23.656 L22.742,27.946 L14.624,27.946 C15.3280035,29.2660066 15.68,30.7399919 15.68,32.368 C15.68,33.5560059 15.5040018,34.6669948 15.152,35.701 C14.7999982,36.7350052 14.3160031,37.7029955 13.7,38.605 C13.0839969,39.5070045 12.3690041,40.3319963 11.555,41.08 C10.7409959,41.8280037 9.8940044,42.5319967 9.014,43.192 L9.146,43.324 C10.1580051,42.927998 11.1479952,42.532002 12.116,42.136 C13.0840048,41.739998 14.1179945,41.542 15.218,41.542 C16.3620057,41.542 17.3519958,41.6629988 18.188,41.905 C19.0240042,42.1470012 19.8159963,42.3999987 20.564,42.664 C21.3120037,42.9720015 22.0599963,43.2469988 22.808,43.489 C23.5560037,43.7310012 24.4359949,43.852 25.448,43.852 C26.6800062,43.852 27.8239947,43.6320022 28.88,43.192 C29.9360053,42.7519978 30.9259954,42.136004 31.85,41.344 L35.216,46.426 C33.5439916,47.834007 31.905008,48.8019974 30.299,49.33 C28.692992,49.8580026 26.8120108,50.122 24.656,50.122 C23.5999947,50.122 22.5330054,50.0010012 21.455,49.759 C20.3769946,49.5169988 19.2660057,49.3080009 18.122,49.132 C17.0219945,48.7799982 15.9000057,48.4720013 14.756,48.208 C13.6119943,47.9439987 12.4240062,47.812 11.192,47.812 C10.0479943,47.812 8.86000616,48.009998 7.628,48.406 C6.39599384,48.802002 5.36200418,49.3519965 4.526,50.056 L1.028,44.71 C1.82000396,44.1819974 2.64499571,43.5110041 3.503,42.697 C4.36100429,41.8829959 5.13099659,41.0030047 5.813,40.057 C6.49500341,39.1109953 7.0559978,38.1210052 7.496,37.087 C7.9360022,36.0529948 8.156,35.0300051 8.156,34.018 C8.156,32.8739943 8.03500121,31.7960051 7.793,30.784 C7.55099879,29.7719949 7.2100022,28.8260044 6.77,27.946 L0.698,27.946 L0.698,23.656 Z" id="£" fill="#000000"/>
    </g>
</svg>
